<svg xmlns="http://www.w3.org/2000/svg" xmlns:xlink="http://www.w3.org/1999/xlink" width="500" zoomAndPan="magnify" viewBox="0 0 375 374.999991" height="500" preserveAspectRatio="xMidYMid meet" version="1.0"><defs><clipPath id="id1"><path d="M 221 102 L 374.871094 102 L 374.871094 185 L 221 185 Z M 221 102 " clip-rule="nonzero"/></clipPath><clipPath id="id2"><path d="M 123 242 L 225 242 L 225 367.273438 L 123 367.273438 Z M 123 242 " clip-rule="nonzero"/></clipPath><clipPath id="id3"><path d="M 150 7.03125 L 252 7.03125 L 252 132 L 150 132 Z M 150 7.03125 " clip-rule="nonzero"/></clipPath><clipPath id="id4"><path d="M 154 104.71875 L 209 104.71875 L 209 231 L 154 231 Z M 154 104.71875 " clip-rule="nonzero"/></clipPath></defs><g clip-path="url(#id1)"><path fill="#68f0af" d="M 374.894531 151.210938 C 283.566406 54.851562 221.488281 130.050781 221.488281 130.050781 C 221.488281 130.050781 288.726562 106.238281 312.132812 119.148438 C 312.132812 119.148438 273.765625 112.453125 223.792969 136.558594 C 262.003906 235.9375 374.894531 151.210938 374.894531 151.210938 " fill-opacity="1" fill-rule="nonzero"/></g><path fill="#68f0af" d="M 312.335938 331.238281 C 350.253906 204.09375 253.988281 188.015625 253.988281 188.015625 C 253.988281 188.015625 308.261719 234.25 308.765625 260.9375 C 308.765625 260.9375 295.390625 224.421875 249.496094 193.265625 C 182.394531 275.992188 312.335938 331.238281 312.335938 331.238281 " fill-opacity="1" fill-rule="nonzero"/><g clip-path="url(#id2)"><path fill="#68f0af" d="M 124.894531 367.160156 C 254.140625 336.375 219.953125 245.097656 219.953125 245.097656 C 219.953125 245.097656 206.992188 315.144531 184.089844 328.929688 C 184.089844 328.929688 209.082031 299.101562 213.15625 243.839844 C 107.847656 227.1875 124.894531 367.160156 124.894531 367.160156 " fill-opacity="1" fill-rule="nonzero"/></g><path fill="#68f0af" d="M 0.015625 223.054688 C 91.34375 319.414062 153.425781 244.214844 153.425781 244.214844 C 153.425781 244.214844 86.183594 268.03125 62.777344 255.117188 C 62.777344 255.117188 101.144531 261.8125 151.117188 237.707031 C 112.910156 138.328125 0.015625 223.054688 0.015625 223.054688 " fill-opacity="1" fill-rule="nonzero"/><path fill="#68f0af" d="M 62.578125 43.027344 C 24.660156 170.171875 120.925781 186.25 120.925781 186.25 C 120.925781 186.25 66.648438 140.015625 66.144531 113.324219 C 66.144531 113.324219 79.523438 149.84375 125.417969 181 C 192.515625 98.277344 62.578125 43.027344 62.578125 43.027344 " fill-opacity="1" fill-rule="nonzero"/><g clip-path="url(#id3)"><path fill="#68f0af" d="M 250.015625 7.101562 C 120.769531 37.894531 154.957031 129.167969 154.957031 129.167969 C 154.957031 129.167969 167.921875 59.121094 190.820312 45.335938 C 190.820312 45.335938 165.832031 75.167969 161.753906 130.425781 C 267.0625 147.078125 250.015625 7.101562 250.015625 7.101562 " fill-opacity="1" fill-rule="nonzero"/></g><path fill="#015044" d="M 71.03125 209.480469 C 91.460938 214.503906 111.519531 221.027344 131 228.984375 C 130.929688 237.335938 137.273438 245.007812 145.199219 247.566406 C 153.125 250.121094 162.113281 248.003906 168.863281 243.117188 C 193.207031 253.453125 218.054688 262.597656 243.28125 270.523438 C 245.382812 271.179688 247.671875 270.523438 249.105469 268.851562 C 266.53125 248.589844 287.1875 224.128906 304.683594 203.769531 C 306.128906 202.089844 305.503906 199.480469 303.457031 198.636719 C 248.535156 175.9375 192.300781 157.230469 136.847656 139.046875 C 135.871094 138.722656 134.851562 138.398438 133.839844 138.574219 C 132.488281 138.796875 131.449219 139.839844 130.5 140.820312 C 114.222656 157.710938 108.148438 166.355469 91.878906 183.246094 L 70.105469 206.328125 C 69.097656 207.394531 69.617188 209.136719 71.03125 209.480469 Z M 71.03125 209.480469 " fill-opacity="1" fill-rule="nonzero"/><path stroke-linecap="round" transform="matrix(1.040205, 0, 0, 1.043957, -33.621819, -33.916953)" fill-opacity="1" fill="#ffffff" fill-rule="nonzero" stroke-linejoin="round" d="M 185.24066 263.210301 C 178.128178 267.629334 169.919158 264.018524 166.629541 256.860512 C 164.969712 253.260926 164.338827 247.76052 160.929041 245.721254 C 156.370143 242.98976 150.008716 241.668914 144.999186 239.861638 C 139.561555 237.889723 134.728522 236.84951 129.260849 234.959915 C 127.619796 234.391166 118.599637 231.438907 111.708716 228.65877 C 128.02912 210.571039 145.348426 192.498276 161.680095 174.399321 C 162.58136 173.400267 163.591528 172.341346 164.928404 172.169224 C 164.778193 172.318895 165.559289 171.510672 165.409079 171.660343 C 196.018285 182.64993 269.110862 205.040699 315.649924 223.959103 C 301.000615 241.799876 288.289026 255.520957 266.459641 282.020193 C 265.88884 282.719904 250.758857 276.119417 248.990125 275.468349 C 243.751523 273.541336 238.501655 271.65174 233.229256 269.810788 C 227.190782 267.711653 221.129776 265.679871 215.061259 263.700473 C 208.718608 261.631272 201.15925 258.151424 194.339679 259.019515 C 191.02002 259.438593 188.128462 261.410508 185.24066 263.210301 Z M 185.24066 263.210301 " stroke="#365fa0" stroke-width="1" stroke-opacity="1" stroke-miterlimit="10"/><path fill="#ffffff" d="M 252.914062 244.320312 C 248.574219 243.785156 241.84375 242.460938 237.320312 240.382812 C 233.835938 238.785156 229.933594 236.195312 226.480469 234.535156 C 223.308594 233.011719 217.410156 232.269531 213.90625 232.511719 C 200.164062 233.480469 188.628906 235.425781 174.886719 236.394531 L 170.652344 235.257812 L 172.089844 235.683594 L 167.191406 234.234375 L 155.101562 229.859375 C 154 228.230469 151.171875 226.039062 150.308594 225.453125 C 128.878906 211.132812 106.078125 199.355469 82.589844 188.769531 C 89.382812 181.859375 95.125 175.855469 101.863281 168.988281 C 99.660156 167.222656 97.402344 165.457031 95.082031 163.683594 C 100.636719 157.566406 107.816406 150.082031 113.371094 143.960938 C 113.515625 144.035156 110.851562 142.625 108.9375 141.613281 C 123.511719 132.039062 152.9375 119.835938 166.367188 111.109375 C 168.511719 116.632812 170.488281 122.832031 170.488281 128.941406 C 177.34375 123.617188 191.175781 110.746094 196.761719 105.292969 C 199.820312 120.660156 208.277344 152.292969 209.007812 163.191406 C 219.117188 154.101562 228.65625 147.273438 238.828125 147.148438 C 244.757812 147.085938 257.84375 147.972656 264.738281 148.816406 C 257.394531 156.425781 249.855469 163.046875 241.90625 169.433594 C 249.148438 166.0625 256.949219 163.464844 264.636719 161.5 C 271.929688 159.644531 273.53125 158.496094 286.210938 163.664062 C 279.261719 167.160156 272.300781 170.667969 265.355469 174.164062 C 271.804688 175.449219 287.761719 178.425781 294.675781 180.304688 C 293.191406 181.796875 291.703125 183.300781 290.214844 184.792969 C 293.46875 185.722656 296.738281 186.660156 299.992188 187.589844 C 284.027344 207.300781 270.660156 226.238281 252.914062 244.320312 " fill-opacity="1" fill-rule="nonzero"/><path stroke-linecap="round" transform="matrix(1.040205, 0, 0, 1.043957, -33.621819, -33.916953)" fill="none" stroke-linejoin="round" d="M 181.181213 252.669726 C 180.141003 250.731488 178.650161 249.68005 176.821344 248.449006 C 156.219933 234.731667 134.300421 223.450222 111.719982 213.310017 C 118.400608 206.529925 123.571615 201.171706 130.248485 194.391613 " stroke="#365fa0" stroke-width="1" stroke-opacity="1" stroke-miterlimit="10"/><path stroke-linecap="round" transform="matrix(1.040205, 0, 0, 1.043957, -33.621819, -33.916953)" fill="none" stroke-linejoin="round" d="M 182.409186 252.209488 C 181.898469 246.510768 175.859995 239.581005 172.198607 235.18068 C 157.091155 217.021856 142.498176 203.618825 123.721825 189.280351 C 129.061819 183.420735 134.409324 177.549893 139.749318 171.690277 " stroke="#365fa0" stroke-width="1" stroke-opacity="1" stroke-miterlimit="10"/><path stroke-linecap="round" transform="matrix(1.040205, 0, 0, 1.043957, -33.621819, -33.916953)" fill="none" stroke-linejoin="round" d="M 183.479438 253.201058 C 185.349563 219.360464 165.788361 186.081136 137.041768 168.131851 C 151.048926 158.960766 179.34113 147.271467 192.251749 138.908605 C 194.309637 144.199472 196.209804 147.840217 196.209804 153.688608 " stroke="#365fa0" stroke-width="1" stroke-opacity="1" stroke-miterlimit="10"/><g clip-path="url(#id4)"><path stroke-linecap="round" transform="matrix(1.040205, 0, 0, 1.043957, -33.621819, -33.916953)" fill="none" stroke-linejoin="round" d="M 183.869986 253.219767 C 185.131757 245.249791 185.330786 238.121713 185.308255 230.050709 C 185.24066 209.141682 181.470369 188.591865 181.399018 167.679097 C 191.620864 159.080502 211.899322 142.661603 221.46024 133.329621 C 224.779898 146.631624 232.350523 175.881063 232.320481 187.839769 " stroke="#365fa0" stroke-width="1" stroke-opacity="1" stroke-miterlimit="10"/></g><path stroke-linecap="round" transform="matrix(1.040205, 0, 0, 1.043957, -33.621819, -33.916953)" fill="none" stroke-linejoin="round" d="M 183.479438 253.201058 C 241.509627 161.609941 259.21948 173.920374 268.889301 173.778186 C 275.089252 173.688384 282.179201 174.990521 286.809449 175.039164 C 271.66069 190.698483 255.640708 201.979929 236.669083 215.989126 C 219.398596 228.729863 206.499244 240.160979 193.040356 256.871737 " stroke="#365fa0" stroke-width="1" stroke-opacity="1" stroke-miterlimit="10"/><path stroke-linecap="round" transform="matrix(1.040205, 0, 0, 1.043957, -33.621819, -33.916953)" fill="none" stroke-linejoin="round" d="M 263.230109 196.079153 C 270.920902 192.198934 278.348826 189.29906 286.711812 187.181217 C 293.719146 185.400133 295.258807 184.300052 307.448414 189.250417 C 298.788761 193.590874 290.140374 197.93133 281.480721 202.279271 C 270.428961 207.820836 259.369691 213.369885 248.719745 219.64858 C 231.67833 229.691499 209.909029 244.849421 195.428707 258.308578 " stroke="#365fa0" stroke-width="1" stroke-opacity="1" stroke-miterlimit="10"/><path stroke-linecap="round" transform="matrix(1.040205, 0, 0, 1.043957, -33.621819, -33.916953)" fill="none" stroke-linejoin="round" d="M 288.161347 199.499133 C 297.440619 200.629149 306.629765 202.541195 315.589839 205.201595 C 303.910949 216.909603 292.228304 228.621352 280.549414 240.329359 C 279.86971 241.010362 279.141188 241.721299 278.198615 241.908387 C 277.150895 242.121668 276.110685 241.631496 275.141825 241.201192 C 261.938296 235.491247 246.789536 240.048726 233.161661 244.651107 C 225.091586 247.371376 219.248386 249.339548 211.17831 252.071043 C 205.778232 253.889544 200.239208 255.96997 196.378791 257.840856 " stroke="#365fa0" stroke-width="1" stroke-opacity="1" stroke-miterlimit="10"/><path stroke-linecap="round" transform="matrix(1.040205, 0, 0, 1.043957, -33.621819, -33.916953)" fill="none" stroke-linejoin="round" d="M 311.290055 209.500892 C 314.429461 210.398918 317.561356 211.28946 320.700762 212.191227 C 305.37926 231.060988 292.521215 249.201103 275.461023 266.52177 C 268.179555 263.850144 262.328844 259.101834 257.270495 255.221615 C 250.518519 250.050485 241.058994 251.169275 232.669721 252.538764 C 221.028384 254.439585 209.390802 256.351631 197.749464 258.24871 " stroke="#365fa0" stroke-width="1" stroke-opacity="1" stroke-miterlimit="10"/><path stroke-linecap="round" transform="matrix(1.040205, 0, 0, 1.043957, -33.621819, -33.916953)" fill="none" stroke-linejoin="round" d="M 198.421658 258.918487 C 211.628943 257.990527 224.73859 256.13835 237.949631 255.21039 C 241.321863 254.970917 246.988566 255.689337 250.0416 257.148628 C 253.368769 258.738882 257.109018 261.208452 260.458719 262.750062 C 265.659768 265.12983 270.361367 266.140109 275.449757 266.52177 " stroke="#365fa0" stroke-width="1" stroke-opacity="1" stroke-miterlimit="10"/><path stroke-linecap="round" transform="matrix(1.040205, 0, 0, 1.043957, -33.621819, -33.916953)" fill="none" stroke-linejoin="round" d="M 162.051867 246.510768 C 171.391224 248.789508 184.628551 253.661296 195.439973 258.918487 " stroke="#365fa0" stroke-width="1" stroke-opacity="1" stroke-miterlimit="10"/><path stroke-linecap="round" transform="matrix(1.040205, 0, 0, 1.043957, -33.621819, -33.916953)" fill="none" stroke-linejoin="round" d="M 117.420482 227.468886 C 119.778792 224.939447 122.140857 222.410009 124.510432 219.88057 " stroke="#365fa0" stroke-width="1" stroke-opacity="1" stroke-miterlimit="10"/><path stroke-linecap="round" transform="matrix(1.040205, 0, 0, 1.043957, -33.621819, -33.916953)" fill="none" stroke-linejoin="round" d="M 115.888332 215.210838 C 120.961702 209.508376 127.698656 202.750734 133.958692 197.998682 " stroke="#365fa0" stroke-width="1" stroke-opacity="1" stroke-miterlimit="10"/><path stroke-linecap="round" transform="matrix(1.040205, 0, 0, 1.043957, -33.621819, -33.916953)" fill="none" stroke-linejoin="round" d="M 165.908529 249.051432 C 166.148867 252.520055 168.788822 256.92038 171.229747 259.401176 C 173.670673 261.878229 175.878771 262.42827 179.348641 262.731354 " stroke="#365fa0" stroke-width="1" stroke-opacity="1" stroke-miterlimit="10"/></svg>